# xmcd
#
# Track frame offsets:
#	150
#	17172
#	30587
#	47020
#	61250
#	75530
#	89350
#	105285
#	119105
#	134922
#	149147
#	164612
#
# Disc length: 2389 seconds
#
# Revision: 1
# Processed by: cddbd v1.5.2PL0 Copyright (c) Steve Scherf et al.
# Submitted via: audiograbber 1.81.02
#
DISCID=ab09530c
DTITLE=Diverse - Musik Express Folge 9
DYEAR=1994
DGENRE=
TTITLE0=Brunner and Brunner - Shananana
TTITLE1=Nockalm Quintett - Lass mich dein Kolumbus sein
TTITLE2=Petra Frey - Prinzessin Blue
TTITLE3=Spatzen Express - Si Senor
TTITLE4=Ulli Bastian - Ich brauch dich jeden Tag
TTITLE5=Schachner and Co - Komm und lieb mich heute Nacht
TTITLE6=Albin Berger - Wer will uns die Liebe verbieten
TTITLE7=Duo Herzklang - Mich hat der Sonnenschein geküsst
TTITLE8=Peggy March - Du hast noch 5 Minuten Zeit
TTITLE9=Kurt Elsasser - Romantisches Mädchen gesucht
TTITLE10=Rieserferner Buam - Mountainbike Cowboy
TTITLE11=Markus Rüger - Es könnte lebenslänglich sein
EXTD=
EXTT0=
EXTT1=
EXTT2=
EXTT3=
EXTT4=
EXTT5=
EXTT6=
EXTT7=
EXTT8=
EXTT9=
EXTT10=
EXTT11=
PLAYORDER=
